P1
# CREATOR: GIMP PNM Filter Version 1.1
20 320
0000000000000000000000000000000000000000000000000000000000000000000000
0000000000000000000000000000000000000000000000000000000000000000000000
0000000000000000000000000000000000000000000000000000000000000000000000
0000000000000000000000000000000000000000000000000000000000000000000000
0000000000000000000000000000000000000000000000000000000000000000000000
0000000000000000000000000000000000000000000000000011111110000001111111
1111111000000111111111111110000001111111111111100000011111111111111000
0001111111111111100000011111111111110000000011111100000000000000000000
0000000000000000000000000000000000000000000000000000000000000000000000
0000000000000000000000000000001111110000000011111111111110000001111111
1111111000000111111111111110000001111111111111100000011111111111111000
0001111111111111100000011111111111111000000111111111111110000001111111
1111111000000111111111111110000001111111111111100000011111111111111000
0001111111111111100000001111111111111000000000000011111110000000000000
1111111000000000000011111110000000000000111111100000000000001111111000
0000000000111111100000001111111111111000000111111111111110000001111111
1111111000000111111111111110000001111111111111100000011111111111111000
0001111111111111100000011111111111111000000111111111111110000001111111
1111111000000111111111111110000001111111111111100000011111111111110000
0000111111000000000000000000000000000000000000000000000000000000000000
0000000000000000000000000000000000000000000000000000000000001111111111
1111111111111111111111111111111111111111111111111111111111111111111111
1111111111111111111111111111111111111111111111111111111111111111111111
1111111111111111111111111111111111111111111111111111111111111111111111
1111111111111111111111111111111111111111111111111111111111110000000000
0000000000000000000000000000000000000000000000000000000000000000000000
0000000000000000000000000000000000000000111111000000001111111111111000
0001111111111111100000011111111111111000000111111111111110000001111111
1111111000000111111111111110000001111111111111100000011111111111111000
0001111111111111100000011111111111111000000111111111111110000001111111
1111111000000111111111111100000001111111000000000000011111110000000000
0001111111000000000000011111110000000000000111111100000000000001111111
0000000000000111111111111100000001111111111111100000011111111111111000
0001111111111111100000011111111111111000000111111111111110000001111111
1111111000000111111111111110000001111111111111100000011111111111111000
0001111111111111100000011111111111111000000111111111111110000001111111
1111111000000011111111111110000000000000111111100000000000001111111000
0000000000111111100000000000001111111000000000000011111110000000000000
1111111111111111111111111111111111111111111111111111111111111111111111
1111111111111111111111111111111111111111111111111111111111111111111111
1111111000000111111111111110000001111111111111100000011111111111111000
0001111111111111100000011111111111111000000111111111111110000001111111
1111111000000111111111111110000001111111111111100000011111111111111000
0001111111111111100000011111111111111000000111111111111110000001111111
1111111000000111111111111110000001111111111111100000011111111111111000
0001111111111111100000011111111111111000000111111111111110000001111111
1111111000000111111111111110000001111111111111100000011111111111111000
0001111111111111100000011111111111110000000111111100000000000001111111
0000000000000111111100000000000001111111000000000000011111110000000000
0001111111000000000000011111111111111111111111111111111111111111111111
1111111111111111111111111111111111111111111111111111111111111111111111
1111111111111111111111111111111111111111111111111111111111111111111111
1111111111111111111111111111111111111111111111111111111111111111111111
1111111111111111111111111111111111111000000000000011111110000000000000
1111111000000000000011111110000000000000111111100000000000001111111000
0000000000111111100000001111111111111000000111111111111110000001111111
1111111000000111111111111110000001111111111111100000011111111111111000
0001111111111111111111111111111111111111111111111111111111111111111111
1111111111111111111111111111111111111111111111111111111111111111111111
1111111111000000000000000000000000000000000000000000000000000000000000
0000000000000000000000000000000000000000000000000000000000001111111111
1111111111111111111111111111111111111111111111111111111111111111111111
1111111111111111111111111111111111111111111111111111111111111111111111
1111111111111111111111111111111111111111111111111111111111111111111111
1111111111111111111111111111111111111111111111111111111111110000000000
0001111111000000000000011111110000000000000111111100000000000001111111
0000000000000111111100000000000001111111111111000000011111111111111000
0001111111111111100000011111111111111000000111111111111110000001111111
1111111000000111111111111110000001111111111111100000011111111111111000
0001111111111111100000011111111111111000000111111111111110000001111111
1111111000000111111111111110000001111111111111100000011111111111111000
0001111111111111100000011111111111111000000111111111111110000001111111
1111111000000111111111111111111111111111111111111111111111111111111111
1111111111111111111111111111111111111111111111111111111111111111111111
1111111111111111111111111111111111111111111111111111111111111111111111
1111111111111111111111111111111111111111111111111111111111111111111111
1111111000000111111111111110000001111111111111100000011111111111111000
0001111111111111100000011111111111111000000111111111111110000001111111
1111111000000111111111111110000001111111111111100000011111111111111000
0001111111111111100000011111111111111000000111111111111110000001111111
1111111111111111111111111111111111111111111111111111111111111111111111
1111111111111111111111111111111111111111111111111111111111111111111111
0000000000000111111100000000000001111111000000000000011111110000000000
0001111111000000000000011111110000000000000111111111111111111111111111
1111111111111111111111111111111111111111111111111111111111111111111111
1111111111111111111111111111111111111111111111111111111111111111111111
1111111111111111111111111111111111111111111111111111111111111111111111
1111111111111111111111111111111111111111111111111111111110000000000000
1111111000000000000011111110000000000000111111100000000000001111111000
0000000000111111100000000000001111111111111111111111111111111111111111
1111111111111111111111111111111111111111111111111111111111111111111111
111111111111111111111111111111