P1
# CREATOR: GIMP PNM Filter Version 1.1
10 160
0000000000000000000000000000000000000000000000000000000000000000000000
0000000000000000000000000000001110000111111000011111100001110000000000
0000000000000000000000000000001110000111111000011111100001111110000111
1110000111111000011111100000001110000000111000000011100000001110000111
1110000111111000011111100001111110000111111000011100000000000000000000
0000000000000000000011111111111111111111111111111111111111111111111111
1111111111000000000000000000000000000000000000000011100001111110000111
1110000111111000011111100001111110000111000000011100000001110000000111
0000000111111000011111100001111110000111111000011111100001111110000111
1110000000111000000011100000001110000000111111111111111111111111111111
1110000111111000011111100001111110000111111000011111100001111110000111
1110000111111000011111100001111110000111111000011111100001110000000111
0000000111000000011100000001111111111111111111111111111111111111111111
1111111111111111111111100000001110000000111000000011100000001110000111
1110000111111000011111111111111111111111111111111100000000000000000000
0000000000000000000011111111111111111111111111111111111111111111111111
1111111111000000011100000001110000000111000000011111100001111110000111
1110000111111000011111100001111110000111111000011111100001111110000111
1110000111111111111111111111111111111111111111111111111111111111111111
1110000111111000011111100001111110000111111000011111100001111110000111
1111111111111111111111111111110000000111000000011100000001110000000111
1111111111111111111111111111111111111111111111111111111111111110000000
111000000011100000001110000000111111111111111111111111111111